<?xml version="1.0" encoding="UTF-8" standalone="no"?>
<svg xmlns:xlink="http://www.w3.org/1999/xlink" height="402.0px" width="552.0px" xmlns="http://www.w3.org/2000/svg">
  <g transform="matrix(1.0, 0.0, 0.0, 1.0, 1.0, 1.0)">
    <path d="M49.2 -1.0 L74.3 -1.0 74.3 24.15 49.2 24.15 49.2 -1.0 M99.4 -1.0 L124.45 -1.0 124.45 24.15 99.4 24.15 99.4 49.25 74.3 49.25 74.3 24.15 99.4 24.15 99.4 -1.0 M149.55 -1.0 L174.65 -1.0 174.65 24.15 149.55 24.15 149.55 -1.0 M199.75 -1.0 L224.85 -1.0 224.85 24.15 199.75 24.15 199.75 -1.0 M249.9 -1.0 L275.0 -1.0 275.0 24.15 249.9 24.15 249.9 -1.0 M300.1 -1.0 L325.2 -1.0 325.2 24.15 300.1 24.15 300.1 49.25 275.0 49.25 275.0 24.15 300.1 24.15 300.1 -1.0 M350.3 -1.0 L375.35 -1.0 375.35 24.15 350.3 24.15 350.3 -1.0 M400.45 -1.0 L425.55 -1.0 425.55 24.15 400.45 24.15 400.45 -1.0 M450.65 -1.0 L475.75 -1.0 475.75 24.15 450.65 24.15 450.65 49.25 425.55 49.25 425.55 24.15 450.65 24.15 450.65 -1.0 M500.85 -1.0 L525.9 -1.0 525.9 24.15 500.85 24.15 500.85 -1.0 M551.0 24.15 L551.0 49.25 525.9 49.25 525.9 24.15 551.0 24.15 M551.0 74.4 L551.0 99.5 525.9 99.5 525.9 124.65 551.0 124.65 551.0 149.75 525.9 149.75 525.9 174.9 500.85 174.9 500.85 149.75 525.9 149.75 525.9 124.65 500.85 124.65 500.85 99.5 475.75 99.5 475.75 124.65 500.85 124.65 500.85 149.75 475.75 149.75 475.75 124.65 450.65 124.65 450.65 99.5 425.55 99.5 425.55 74.4 400.45 74.4 400.45 99.5 375.35 99.5 375.35 74.4 350.3 74.4 350.3 49.25 325.2 49.25 325.2 24.15 350.3 24.15 350.3 49.25 375.35 49.25 375.35 24.15 400.45 24.15 400.45 49.25 375.35 49.25 375.35 74.4 400.45 74.4 400.45 49.25 425.55 49.25 425.55 74.4 450.65 74.4 450.65 99.5 475.75 99.5 475.75 74.4 500.85 74.4 500.85 49.25 475.75 49.25 475.75 24.15 500.85 24.15 500.85 49.25 525.9 49.25 525.9 74.4 500.85 74.4 500.85 99.5 525.9 99.5 525.9 74.4 551.0 74.4 M551.0 174.9 L551.0 200.0 525.9 200.0 525.9 174.9 551.0 174.9 M551.0 225.15 L551.0 250.25 525.9 250.25 525.9 225.15 500.85 225.15 500.85 200.0 475.75 200.0 475.75 174.9 450.65 174.9 450.65 149.75 425.55 149.75 425.55 124.65 400.45 124.65 400.45 149.75 375.35 149.75 375.35 124.65 350.3 124.65 350.3 149.75 325.2 149.75 325.2 174.9 350.3 174.9 350.3 149.75 375.35 149.75 375.35 174.9 400.45 174.9 400.45 149.75 425.55 149.75 425.55 174.9 450.65 174.9 450.65 200.0 475.75 200.0 475.75 225.15 500.85 225.15 500.85 250.25 525.9 250.25 525.9 275.4 551.0 275.4 551.0 300.5 525.9 300.5 525.9 275.4 500.85 275.4 500.85 250.25 475.75 250.25 475.75 225.15 450.65 225.15 450.65 200.0 425.55 200.0 425.55 225.15 400.45 225.15 400.45 200.0 425.55 200.0 425.55 174.9 400.45 174.9 400.45 200.0 375.35 200.0 375.35 225.15 400.45 225.15 400.45 250.25 375.35 250.25 375.35 225.15 350.3 225.15 350.3 200.0 325.2 200.0 325.2 225.15 350.3 225.15 350.3 250.25 375.35 250.25 375.35 275.4 350.3 275.4 350.3 250.25 325.2 250.25 325.2 275.4 350.3 275.4 350.3 300.5 325.2 300.5 325.2 275.4 300.1 275.4 300.1 250.25 325.2 250.25 325.2 225.15 300.1 225.15 300.1 200.0 275.0 200.0 275.0 174.9 300.1 174.9 300.1 149.75 275.0 149.75 275.0 124.65 249.9 124.65 249.9 149.75 224.85 149.75 224.85 124.65 249.9 124.65 249.9 99.5 224.85 99.5 224.85 124.65 199.75 124.65 199.75 149.75 224.85 149.75 224.85 174.9 249.9 174.9 249.9 149.75 275.0 149.75 275.0 174.9 249.9 174.9 249.9 200.0 275.0 200.0 275.0 225.15 300.1 225.15 300.1 250.25 275.0 250.25 275.0 275.4 300.1 275.4 300.1 300.5 275.0 300.5 275.0 325.65 300.1 325.65 300.1 350.75 275.0 350.75 275.0 375.9 300.1 375.9 300.1 401.0 275.0 401.0 275.0 375.9 249.9 375.9 249.9 350.75 275.0 350.75 275.0 325.65 249.9 325.65 249.9 300.5 275.0 300.5 275.0 275.4 249.9 275.4 249.9 250.25 275.0 250.25 275.0 225.15 249.9 225.15 249.9 200.0 224.85 200.0 224.85 225.15 199.75 225.15 199.75 200.0 174.65 200.0 174.65 174.9 149.55 174.9 149.55 149.75 124.45 149.75 124.45 124.65 149.55 124.65 149.55 99.5 174.65 99.5 174.65 74.4 199.75 74.4 199.75 49.25 224.85 49.25 224.85 74.4 249.9 74.4 249.9 99.5 275.0 99.5 275.0 124.65 300.1 124.65 300.1 99.5 325.2 99.5 325.2 74.4 300.1 74.4 300.1 49.25 325.2 49.25 325.2 74.4 350.3 74.4 350.3 99.5 325.2 99.5 325.2 124.65 350.3 124.65 350.3 99.5 375.35 99.5 375.35 124.65 400.45 124.65 400.45 99.5 425.55 99.5 425.55 124.65 450.65 124.65 450.65 149.75 475.75 149.75 475.75 174.9 500.85 174.9 500.85 200.0 525.9 200.0 525.9 225.15 551.0 225.15 M551.0 325.65 L551.0 350.75 525.9 350.75 525.9 325.65 500.85 325.65 500.85 300.5 475.75 300.5 475.75 325.65 450.65 325.65 450.65 350.75 425.55 350.75 425.55 325.65 400.45 325.65 400.45 350.75 375.35 350.75 375.35 325.65 350.3 325.65 350.3 300.5 375.35 300.5 375.35 325.65 400.45 325.65 400.45 300.5 375.35 300.5 375.35 275.4 400.45 275.4 400.45 300.5 425.55 300.5 425.55 325.65 450.65 325.65 450.65 300.5 475.75 300.5 475.75 275.4 500.85 275.4 500.85 300.5 525.9 300.5 525.9 325.65 551.0 325.65 M551.0 375.9 L551.0 401.0 525.9 401.0 525.9 375.9 500.85 375.9 500.85 350.75 475.75 350.75 475.75 375.9 450.65 375.9 450.65 350.75 475.75 350.75 475.75 325.65 500.85 325.65 500.85 350.75 525.9 350.75 525.9 375.9 551.0 375.9 M500.85 401.0 L475.75 401.0 475.75 375.9 500.85 375.9 500.85 401.0 M450.65 401.0 L425.55 401.0 425.55 375.9 400.45 375.9 400.45 401.0 375.35 401.0 375.35 375.9 350.3 375.9 350.3 350.75 375.35 350.75 375.35 375.9 400.45 375.9 400.45 350.75 425.55 350.75 425.55 375.9 450.65 375.9 450.65 401.0 M350.3 401.0 L325.2 401.0 325.2 375.9 350.3 375.9 350.3 401.0 M249.9 401.0 L224.85 401.0 224.85 375.9 199.75 375.9 199.75 350.75 224.85 350.75 224.85 325.65 199.75 325.65 199.75 300.5 224.85 300.5 224.85 275.4 199.75 275.4 199.75 250.25 174.65 250.25 174.65 225.15 149.55 225.15 149.55 200.0 124.45 200.0 124.45 174.9 99.4 174.9 99.4 149.75 74.3 149.75 74.3 124.65 99.4 124.65 99.4 99.5 74.3 99.5 74.3 124.65 49.2 124.65 49.2 99.5 74.3 99.5 74.3 74.4 49.2 74.4 49.2 49.25 24.1 49.25 24.1 74.4 49.2 74.4 49.2 99.5 24.1 99.5 24.1 74.4 -1.0 74.4 -1.0 49.25 24.1 49.25 24.1 24.15 -1.0 24.15 -1.0 -1.0 24.1 -1.0 24.1 24.15 49.2 24.15 49.2 49.25 74.3 49.25 74.3 74.4 99.4 74.4 99.4 99.5 124.45 99.5 124.45 124.65 99.4 124.65 99.4 149.75 124.45 149.75 124.45 174.9 149.55 174.9 149.55 200.0 174.65 200.0 174.65 225.15 199.75 225.15 199.75 250.25 224.85 250.25 224.85 225.15 249.9 225.15 249.9 250.25 224.85 250.25 224.85 275.4 249.9 275.4 249.9 300.5 224.85 300.5 224.85 325.65 249.9 325.65 249.9 350.75 224.85 350.75 224.85 375.9 249.9 375.9 249.9 401.0 M199.75 401.0 L174.65 401.0 174.65 375.9 149.55 375.9 149.55 350.75 174.65 350.75 174.65 325.65 149.55 325.65 149.55 300.5 174.65 300.5 174.65 275.4 149.55 275.4 149.55 250.25 124.45 250.25 124.45 225.15 99.4 225.15 99.4 200.0 124.45 200.0 124.45 225.15 149.55 225.15 149.55 250.25 174.65 250.25 174.65 275.4 199.75 275.4 199.75 300.5 174.65 300.5 174.65 325.65 199.75 325.65 199.75 350.75 174.65 350.75 174.65 375.9 199.75 375.9 199.75 401.0 M149.55 401.0 L124.45 401.0 124.45 375.9 99.4 375.9 99.4 350.75 124.45 350.75 124.45 325.65 99.4 325.65 99.4 300.5 74.3 300.5 74.3 275.4 49.2 275.4 49.2 300.5 24.1 300.5 24.1 275.4 49.2 275.4 49.2 250.25 24.1 250.25 24.1 275.4 -1.0 275.4 -1.0 250.25 24.1 250.25 24.1 225.15 -1.0 225.15 -1.0 200.0 24.1 200.0 24.1 174.9 49.2 174.9 49.2 149.75 24.1 149.75 24.1 174.9 -1.0 174.9 -1.0 149.75 24.1 149.75 24.1 124.65 49.2 124.65 49.2 149.75 74.3 149.75 74.3 174.9 49.2 174.9 49.2 200.0 24.1 200.0 24.1 225.15 49.2 225.15 49.2 250.25 74.3 250.25 74.3 225.15 49.2 225.15 49.2 200.0 74.3 200.0 74.3 225.15 99.4 225.15 99.4 250.25 74.3 250.25 74.3 275.4 99.4 275.4 99.4 250.25 124.45 250.25 124.45 275.4 99.4 275.4 99.4 300.5 124.45 300.5 124.45 275.4 149.55 275.4 149.55 300.5 124.45 300.5 124.45 325.65 149.55 325.65 149.55 350.75 124.45 350.75 124.45 375.9 149.55 375.9 149.55 401.0 M99.4 401.0 L74.3 401.0 74.3 375.9 49.2 375.9 49.2 401.0 24.1 401.0 24.1 375.9 49.2 375.9 49.2 350.75 24.1 350.75 24.1 375.9 -1.0 375.9 -1.0 350.75 24.1 350.75 24.1 325.65 -1.0 325.65 -1.0 300.5 24.1 300.5 24.1 325.65 49.2 325.65 49.2 350.75 74.3 350.75 74.3 325.65 99.4 325.65 99.4 350.75 74.3 350.75 74.3 375.9 99.4 375.9 99.4 401.0 M-1.0 124.65 L-1.0 99.5 24.1 99.5 24.1 124.65 -1.0 124.65 M450.65 49.25 L475.75 49.25 475.75 74.4 450.65 74.4 450.65 49.25 M325.2 124.65 L300.1 124.65 300.1 149.75 325.2 149.75 325.2 124.65 M350.3 174.9 L350.3 200.0 375.35 200.0 375.35 174.9 350.3 174.9 M425.55 275.4 L450.65 275.4 450.65 250.25 425.55 250.25 425.55 275.4 400.45 275.4 400.45 250.25 425.55 250.25 425.55 225.15 450.65 225.15 450.65 250.25 475.75 250.25 475.75 275.4 450.65 275.4 450.65 300.5 425.55 300.5 425.55 275.4 M325.2 325.65 L300.1 325.65 300.1 300.5 325.2 300.5 325.2 325.65 350.3 325.65 350.3 350.75 325.2 350.75 325.2 325.65 M325.2 350.75 L325.2 375.9 300.1 375.9 300.1 350.75 325.2 350.75 M325.2 174.9 L300.1 174.9 300.1 200.0 325.2 200.0 325.2 174.9 M174.65 49.25 L174.65 24.15 199.75 24.15 199.75 49.25 174.65 49.25 174.65 74.4 149.55 74.4 149.55 99.5 124.45 99.5 124.45 74.4 99.4 74.4 99.4 49.25 124.45 49.25 124.45 24.15 149.55 24.15 149.55 49.25 124.45 49.25 124.45 74.4 149.55 74.4 149.55 49.25 174.65 49.25 M275.0 74.4 L300.1 74.4 300.1 99.5 275.0 99.5 275.0 74.4 249.9 74.4 249.9 49.25 224.85 49.25 224.85 24.15 249.9 24.15 249.9 49.25 275.0 49.25 275.0 74.4 M199.75 74.4 L199.75 99.5 224.85 99.5 224.85 74.4 199.75 74.4 M199.75 99.5 L174.65 99.5 174.65 124.65 199.75 124.65 199.75 99.5 M174.65 149.75 L174.65 174.9 199.75 174.9 199.75 149.75 174.65 149.75 174.65 124.65 149.55 124.65 149.55 149.75 174.65 149.75 M199.75 174.9 L199.75 200.0 224.85 200.0 224.85 174.9 199.75 174.9 M74.3 174.9 L99.4 174.9 99.4 200.0 74.3 200.0 74.3 174.9 M74.3 300.5 L74.3 325.65 49.2 325.65 49.2 300.5 74.3 300.5" fill="#e6e6ff" fill-rule="evenodd" stroke="none"/>
    <path d="M74.3 -1.0 L99.4 -1.0 99.4 24.15 124.45 24.15 124.45 -1.0 149.55 -1.0 149.55 24.15 174.65 24.15 174.65 -1.0 199.75 -1.0 199.75 24.15 224.85 24.15 224.85 -1.0 249.9 -1.0 249.9 24.15 275.0 24.15 275.0 -1.0 300.1 -1.0 300.1 24.15 275.0 24.15 275.0 49.25 300.1 49.25 300.1 24.15 325.2 24.15 325.2 -1.0 350.3 -1.0 350.3 24.15 375.35 24.15 375.35 -1.0 400.45 -1.0 400.45 24.15 425.55 24.15 425.55 -1.0 450.65 -1.0 450.65 24.15 475.75 24.15 475.75 -1.0 500.85 -1.0 500.85 24.15 525.9 24.15 525.9 -1.0 551.0 -1.0 551.0 24.15 525.9 24.15 525.9 49.25 551.0 49.25 551.0 74.4 525.9 74.4 525.9 49.25 500.85 49.25 500.85 24.15 475.75 24.15 475.75 49.25 500.85 49.25 500.85 74.4 525.9 74.4 525.9 99.5 500.85 99.5 500.85 74.4 475.75 74.4 475.75 99.5 450.65 99.5 450.65 74.4 425.55 74.4 425.55 49.25 450.65 49.25 450.65 24.15 425.55 24.15 425.55 49.25 400.45 49.25 400.45 74.4 375.35 74.4 375.35 49.25 400.45 49.25 400.45 24.15 375.35 24.15 375.35 49.25 350.3 49.25 350.3 24.15 325.2 24.15 325.2 49.25 350.3 49.25 350.3 74.4 375.35 74.4 375.35 99.5 400.45 99.5 400.45 74.4 425.55 74.4 425.55 99.5 450.65 99.5 450.65 124.65 475.75 124.65 475.75 149.75 500.85 149.75 500.85 124.65 475.75 124.65 475.75 99.5 500.85 99.5 500.85 124.65 525.9 124.65 525.9 149.75 500.85 149.75 500.85 174.9 525.9 174.9 525.9 149.75 551.0 149.75 551.0 174.9 525.9 174.9 525.9 200.0 551.0 200.0 551.0 225.15 525.9 225.15 525.9 200.0 500.85 200.0 500.85 174.9 475.75 174.9 475.75 149.75 450.65 149.75 450.65 124.65 425.55 124.65 425.55 99.5 400.45 99.5 400.45 124.65 375.35 124.65 375.35 99.5 350.3 99.5 350.3 124.65 325.2 124.65 325.2 99.5 350.3 99.5 350.3 74.4 325.2 74.4 325.2 49.25 300.1 49.25 300.1 74.4 325.2 74.4 325.2 99.5 300.1 99.5 300.1 124.65 275.0 124.65 275.0 99.5 249.9 99.5 249.9 74.4 224.85 74.4 224.85 49.25 199.75 49.25 199.75 74.4 174.65 74.4 174.65 49.25 199.75 49.25 199.75 24.15 174.65 24.15 174.65 49.25 149.55 49.25 149.55 74.4 124.45 74.4 124.45 49.25 149.55 49.25 149.55 24.15 124.45 24.15 124.45 49.25 99.4 49.25 99.4 74.4 124.45 74.4 124.45 99.5 149.55 99.5 149.55 74.4 174.65 74.4 174.65 99.5 149.55 99.5 149.55 124.65 124.45 124.65 124.45 149.75 149.55 149.75 149.55 174.9 174.65 174.9 174.65 200.0 199.75 200.0 199.75 225.15 224.85 225.15 224.85 200.0 249.9 200.0 249.9 225.15 275.0 225.15 275.0 250.25 249.9 250.25 249.9 275.4 275.0 275.4 275.0 300.5 249.9 300.5 249.9 325.65 275.0 325.65 275.0 350.75 249.9 350.75 249.9 375.9 275.0 375.9 275.0 401.0 249.9 401.0 249.9 375.9 224.85 375.9 224.85 350.75 249.9 350.75 249.9 325.65 224.85 325.65 224.85 300.5 249.9 300.5 249.9 275.4 224.85 275.4 224.85 250.25 249.9 250.25 249.9 225.15 224.85 225.15 224.85 250.25 199.75 250.25 199.75 225.15 174.65 225.15 174.65 200.0 149.55 200.0 149.55 174.9 124.45 174.9 124.45 149.75 99.4 149.75 99.4 124.65 124.45 124.65 124.45 99.5 99.4 99.5 99.4 74.4 74.3 74.4 74.3 49.25 49.2 49.25 49.2 24.15 74.3 24.15 74.3 -1.0 M551.0 99.5 L551.0 124.65 525.9 124.65 525.9 99.5 551.0 99.5 M551.0 250.25 L551.0 275.4 525.9 275.4 525.9 250.25 500.85 250.25 500.85 225.15 475.75 225.15 475.75 200.0 450.65 200.0 450.65 174.9 425.55 174.9 425.55 149.75 400.45 149.75 400.45 174.9 375.35 174.9 375.35 149.75 400.45 149.75 400.45 124.65 425.55 124.65 425.55 149.75 450.65 149.75 450.65 174.9 475.75 174.9 475.75 200.0 500.85 200.0 500.85 225.15 525.9 225.15 525.9 250.25 551.0 250.25 M551.0 300.5 L551.0 325.65 525.9 325.65 525.9 300.5 500.85 300.5 500.85 275.4 475.75 275.4 475.75 300.5 450.65 300.5 450.65 325.65 425.55 325.65 425.55 300.5 400.45 300.5 400.45 275.4 375.35 275.4 375.35 250.25 350.3 250.25 350.3 225.15 325.2 225.15 325.2 200.0 350.3 200.0 350.3 225.15 375.35 225.15 375.35 250.25 400.45 250.25 400.45 225.15 375.35 225.15 375.35 200.0 400.45 200.0 400.45 174.9 425.55 174.9 425.55 200.0 400.45 200.0 400.45 225.15 425.55 225.15 425.55 200.0 450.65 200.0 450.65 225.15 475.75 225.15 475.75 250.25 500.85 250.25 500.85 275.4 525.9 275.4 525.9 300.5 551.0 300.5 M551.0 350.75 L551.0 375.9 525.9 375.9 525.9 350.75 500.85 350.75 500.85 325.65 475.75 325.65 475.75 350.75 450.65 350.75 450.65 375.9 425.55 375.9 425.55 350.75 400.45 350.75 400.45 375.9 375.35 375.9 375.35 350.75 350.3 350.75 350.3 375.9 375.35 375.9 375.35 401.0 350.3 401.0 350.3 375.9 325.2 375.9 325.2 401.0 300.1 401.0 300.1 375.9 275.0 375.9 275.0 350.75 300.1 350.75 300.1 325.65 275.0 325.65 275.0 300.5 300.1 300.5 300.1 275.4 275.0 275.4 275.0 250.25 300.1 250.25 300.1 225.15 275.0 225.15 275.0 200.0 249.9 200.0 249.9 174.9 275.0 174.9 275.0 149.75 249.9 149.75 249.9 174.9 224.85 174.9 224.85 149.75 249.9 149.75 249.9 124.65 275.0 124.65 275.0 149.75 300.1 149.75 300.1 174.9 275.0 174.9 275.0 200.0 300.1 200.0 300.1 225.15 325.2 225.15 325.2 250.25 300.1 250.25 300.1 275.4 325.2 275.4 325.2 300.5 350.3 300.5 350.3 275.4 325.2 275.4 325.2 250.25 350.3 250.25 350.3 275.4 375.35 275.4 375.35 300.5 400.45 300.5 400.45 325.65 375.35 325.65 375.35 300.5 350.3 300.5 350.3 325.65 375.35 325.65 375.35 350.75 400.45 350.75 400.45 325.65 425.55 325.65 425.55 350.75 450.65 350.75 450.65 325.65 475.75 325.65 475.75 300.5 500.85 300.5 500.85 325.65 525.9 325.65 525.9 350.75 551.0 350.75 M525.9 401.0 L500.85 401.0 500.85 375.9 475.75 375.9 475.75 350.75 500.85 350.75 500.85 375.9 525.9 375.9 525.9 401.0 M475.75 401.0 L450.65 401.0 450.65 375.9 475.75 375.9 475.75 401.0 M425.55 401.0 L400.45 401.0 400.45 375.9 425.55 375.9 425.55 401.0 M224.85 401.0 L199.75 401.0 199.75 375.9 174.65 375.9 174.65 350.75 199.75 350.75 199.75 325.65 174.65 325.65 174.65 300.5 199.75 300.5 199.75 275.4 174.65 275.4 174.65 250.25 149.55 250.25 149.55 225.15 124.45 225.15 124.45 200.0 99.4 200.0 99.4 174.9 74.3 174.9 74.3 149.75 49.2 149.75 49.2 124.65 24.1 124.65 24.1 149.75 -1.0 149.75 -1.0 124.65 24.1 124.65 24.1 99.5 -1.0 99.5 -1.0 74.4 24.1 74.4 24.1 99.5 49.2 99.5 49.2 74.4 24.1 74.4 24.1 49.25 49.2 49.25 49.2 74.4 74.3 74.4 74.3 99.5 49.2 99.5 49.2 124.65 74.3 124.65 74.3 99.5 99.4 99.5 99.4 124.65 74.3 124.65 74.3 149.75 99.4 149.75 99.4 174.9 124.45 174.9 124.45 200.0 149.55 200.0 149.55 225.15 174.65 225.15 174.65 250.25 199.75 250.25 199.75 275.4 224.85 275.4 224.85 300.5 199.75 300.5 199.75 325.65 224.85 325.65 224.85 350.75 199.75 350.75 199.75 375.9 224.85 375.9 224.85 401.0 M174.65 401.0 L149.55 401.0 149.55 375.9 124.45 375.9 124.45 350.75 149.55 350.75 149.55 325.65 124.45 325.65 124.45 300.5 149.55 300.5 149.55 275.4 124.45 275.4 124.45 300.5 99.4 300.5 99.4 275.4 124.45 275.4 124.45 250.25 99.4 250.25 99.4 275.4 74.3 275.4 74.3 250.25 99.4 250.25 99.4 225.15 124.45 225.15 124.45 250.25 149.55 250.25 149.55 275.4 174.65 275.4 174.65 300.5 149.55 300.5 149.55 325.65 174.65 325.65 174.65 350.75 149.55 350.75 149.55 375.9 174.65 375.9 174.65 401.0 M124.45 401.0 L99.4 401.0 99.4 375.9 74.3 375.9 74.3 350.75 99.4 350.75 99.4 325.65 74.3 325.65 74.3 350.75 49.2 350.75 49.2 325.65 24.1 325.65 24.1 300.5 49.2 300.5 49.2 275.4 74.3 275.4 74.3 300.5 99.4 300.5 99.4 325.65 124.45 325.65 124.45 350.75 99.4 350.75 99.4 375.9 124.45 375.9 124.45 401.0 M74.3 401.0 L49.2 401.0 49.2 375.9 74.3 375.9 74.3 401.0 M24.1 401.0 L-1.0 401.0 -1.0 375.9 24.1 375.9 24.1 350.75 49.2 350.75 49.2 375.9 24.1 375.9 24.1 401.0 M-1.0 350.75 L-1.0 325.65 24.1 325.65 24.1 350.75 -1.0 350.75 M-1.0 300.5 L-1.0 275.4 24.1 275.4 24.1 250.25 49.2 250.25 49.2 275.4 24.1 275.4 24.1 300.5 -1.0 300.5 M-1.0 250.25 L-1.0 225.15 24.1 225.15 24.1 250.25 -1.0 250.25 M-1.0 200.0 L-1.0 174.9 24.1 174.9 24.1 149.75 49.2 149.75 49.2 174.9 24.1 174.9 24.1 200.0 49.2 200.0 49.2 174.9 74.3 174.9 74.3 200.0 99.4 200.0 99.4 225.15 74.3 225.15 74.3 200.0 49.2 200.0 49.2 225.15 74.3 225.15 74.3 250.25 49.2 250.25 49.2 225.15 24.1 225.15 24.1 200.0 -1.0 200.0 M-1.0 49.25 L-1.0 24.15 24.1 24.15 24.1 49.25 -1.0 49.25 M24.1 -1.0 L49.2 -1.0 49.2 24.15 24.1 24.15 24.1 -1.0 M450.65 49.25 L450.65 74.4 475.75 74.4 475.75 49.25 450.65 49.25 M350.3 149.75 L350.3 174.9 325.2 174.9 325.2 149.75 350.3 149.75 350.3 124.65 375.35 124.65 375.35 149.75 350.3 149.75 M350.3 174.9 L375.35 174.9 375.35 200.0 350.3 200.0 350.3 174.9 M325.2 124.65 L325.2 149.75 300.1 149.75 300.1 124.65 325.2 124.65 M425.55 275.4 L425.55 250.25 450.65 250.25 450.65 275.4 425.55 275.4 425.55 300.5 450.65 300.5 450.65 275.4 475.75 275.4 475.75 250.25 450.65 250.25 450.65 225.15 425.55 225.15 425.55 250.25 400.45 250.25 400.45 275.4 425.55 275.4 M325.2 325.65 L325.2 350.75 350.3 350.75 350.3 325.65 325.2 325.65 325.2 300.5 300.1 300.5 300.1 325.65 325.2 325.65 M325.2 350.75 L300.1 350.75 300.1 375.9 325.2 375.9 325.2 350.75 M325.2 174.9 L325.2 200.0 300.1 200.0 300.1 174.9 325.2 174.9 M249.9 49.25 L249.9 74.4 275.0 74.4 275.0 49.25 249.9 49.25 249.9 24.15 224.85 24.15 224.85 49.25 249.9 49.25 M275.0 74.4 L275.0 99.5 300.1 99.5 300.1 74.4 275.0 74.4 M199.75 74.4 L224.85 74.4 224.85 99.5 199.75 99.5 199.75 74.4 M224.85 124.65 L224.85 99.5 249.9 99.5 249.9 124.65 224.85 124.65 224.85 149.75 199.75 149.75 199.75 124.65 224.85 124.65 M199.75 174.9 L224.85 174.9 224.85 200.0 199.75 200.0 199.75 174.9 174.65 174.9 174.65 149.75 149.55 149.75 149.55 124.65 174.65 124.65 174.65 149.75 199.75 149.75 199.75 174.9 M199.75 99.5 L199.75 124.65 174.65 124.65 174.65 99.5 199.75 99.5 M99.4 24.15 L74.3 24.15 74.3 49.25 99.4 49.25 99.4 24.15 M74.3 300.5 L49.2 300.5 49.2 325.65 74.3 325.65 74.3 300.5" fill="#f7f7ff" fill-rule="evenodd" stroke="none"/>
  </g>
</svg>
